<svg width="20" height="17" viewBox="0 0 20 17" fill="none" xmlns="http://www.w3.org/2000/svg">
<g clip-path="url(#clip0_2_30)">
<path d="M20 1.13749C19.9721 1.55897 19.8324 2.05662 19.7258 2.55681C18.8955 6.49232 18.0576 10.4253 17.2223 14.3583C17.1233 14.8254 17.0242 15.2926 16.9227 15.7598C16.9125 15.803 16.9049 15.8436 16.8922 15.8868C16.6155 16.8922 15.902 16.9938 15.1707 16.4682C13.7184 15.4247 12.2864 14.3532 10.8493 13.2868C10.7097 13.1827 10.6335 13.1674 10.4964 13.302C9.78545 14.0053 9.05674 14.6909 8.33819 15.3866C8.16046 15.5567 7.96496 15.6811 7.72121 15.7243C7.5841 15.7497 7.50793 15.7395 7.52316 15.5592C7.57902 14.9016 7.61965 14.244 7.66535 13.5864C7.71867 12.8272 7.77961 12.0706 7.82277 11.3114C7.83293 11.1413 7.88117 11.0169 8.01066 10.9001C10.7401 8.43976 13.4645 5.97689 16.1889 3.51403C16.26 3.45055 16.3311 3.38962 16.3946 3.32106C16.458 3.25505 16.5418 3.18141 16.4809 3.07731C16.425 2.98083 16.3209 2.98591 16.227 2.99606C16.0493 3.01638 15.8994 3.10016 15.7496 3.19411C12.3194 5.35483 8.88917 7.51301 5.46146 9.67881C5.31166 9.7753 5.18471 9.78545 5.01967 9.73213C3.60035 9.28018 2.17849 8.83585 0.756628 8.39152C0.548426 8.3255 0.345303 8.24679 0.180266 8.10207C-0.0406303 7.90656 -0.0609426 7.68313 0.11679 7.44954C0.289445 7.22356 0.530653 7.08645 0.787096 6.98743C2.39177 6.36537 3.99644 5.7433 5.60111 5.12378C9.92255 3.45563 14.2415 1.79256 18.5578 0.126952C18.5908 0.114256 18.6238 0.0990223 18.6594 0.0888661C19.449 -0.192967 20.0051 0.203123 20 1.13749Z" fill="#5A78FF"/>
</g>
<defs>
<clipPath id="clip0_2_30">
<rect width="20" height="16.7805" fill="white"/>
</clipPath>
</defs>
</svg>
