<svg width="20" height="9" viewBox="0 0 20 9" fill="none" xmlns="http://www.w3.org/2000/svg">
<path d="M12.6678 5.0058H7.33019C6.84334 5.0058 6.44876 4.60983 6.44876 4.12127C6.44876 3.63271 6.84334 3.23673 7.33019 3.23673H12.6678C13.1547 3.23673 13.5493 3.63271 13.5493 4.12127C13.5493 4.60983 13.1547 5.0058 12.6678 5.0058Z" fill="white"/>
<path d="M4.10679 1.76907C2.81508 1.76907 1.76286 2.825 1.76286 4.12127C1.76286 5.41754 2.81311 6.47347 4.10679 6.47347C5.40047 6.47347 6.45073 5.41951 6.45073 4.12127C6.45073 2.82303 5.40047 1.76907 4.10679 1.76907ZM4.10679 8.24057C1.84334 8.24057 0 6.3927 0 4.1193C0 1.8459 1.84334 0 4.10679 0C6.37024 0 8.21358 1.84787 8.21358 4.12127C8.21358 6.39467 6.3722 8.24254 4.10679 8.24254" fill="white"/>
<path d="M15.8932 1.76907C14.6015 1.76907 13.5493 2.825 13.5493 4.12127C13.5493 5.41754 14.5995 6.47347 15.8932 6.47347C17.1869 6.47347 18.2371 5.41951 18.2371 4.12127C18.2371 2.82303 17.1869 1.76907 15.8932 1.76907ZM15.8932 8.24057C13.6298 8.24057 11.7864 6.3927 11.7864 4.1193C11.7864 1.8459 13.6298 0 15.8932 0C18.1566 0 20 1.84787 20 4.12127C20 6.39467 18.1586 8.24254 15.8932 8.24254" fill="white"/>
</svg>
