<svg width="44" height="18" viewBox="0 0 44 18" fill="none" xmlns="http://www.w3.org/2000/svg">
<path d="M27.6639 10.9316H16.0076C14.9444 10.9316 14.0828 10.0669 14.0828 9C14.0828 7.93308 14.9444 7.06836 16.0076 7.06836H27.6639C28.7271 7.06836 29.5888 7.93308 29.5888 9C29.5888 10.0669 28.7271 10.9316 27.6639 10.9316Z" fill="#5A78FF"/>
<path d="M8.96839 3.86329C6.14755 3.86329 3.84972 6.16922 3.84972 9C3.84972 11.8308 6.14326 14.1367 8.96839 14.1367C11.7935 14.1367 14.0871 11.8351 14.0871 9C14.0871 6.16491 11.7935 3.86329 8.96839 3.86329ZM8.96839 17.9957C4.02548 17.9957 0 13.9603 0 8.9957C0 4.03107 4.02548 0 8.96839 0C13.9113 0 17.9368 4.03537 17.9368 9C17.9368 13.9646 13.9156 18 8.96839 18" fill="#5A78FF"/>
<path d="M34.7075 3.86329C31.8866 3.86329 29.5888 6.16922 29.5888 9C29.5888 11.8308 31.8824 14.1367 34.7075 14.1367C37.5326 14.1367 39.8262 11.8351 39.8262 9C39.8262 6.16491 37.5326 3.86329 34.7075 3.86329ZM34.7075 17.9957C29.7646 17.9957 25.7391 13.9603 25.7391 8.9957C25.7391 4.03107 29.7646 0 34.7075 0C39.6504 0 43.6759 4.03537 43.6759 9C43.6759 13.9646 39.6547 18 34.7075 18" fill="#5A78FF"/>
</svg>
