<svg width="35" height="35" viewBox="0 0 35 35" fill="none" xmlns="http://www.w3.org/2000/svg">
<g clip-path="url(#clip0_2_9)">
<path d="M17.5 0H20.3543C21.0848 0 21.689 0.00450915 22.176 0.0135274C22.663 0.0225457 23.0913 0.031564 23.4656 0.0450915C23.8399 0.0541098 24.2592 0.0721464 24.7282 0.0901829C27.9297 0.252512 30.3826 1.19492 32.0961 2.91742C33.8096 4.63991 34.743 7.10191 34.9053 10.2989C34.9233 10.7633 34.9414 11.1782 34.9504 11.5434C34.9594 11.9087 34.9684 12.3325 34.982 12.8195C34.991 13.3065 34.9955 13.9152 34.9955 14.6412V20.3678C34.9955 21.0848 34.991 21.689 34.982 22.176C34.9729 22.663 34.9594 23.0913 34.9504 23.4656C34.9414 23.8399 34.9233 24.2592 34.9053 24.7282C34.743 27.9297 33.8051 30.3826 32.0961 32.0961C30.3826 33.8096 27.9297 34.743 24.7282 34.9053C24.2637 34.9233 23.8399 34.9414 23.4656 34.9504C23.0913 34.9594 22.6585 34.9684 22.176 34.982C21.6935 34.9955 21.0803 34.9955 20.3543 34.9955H14.6277C13.9062 34.9955 13.3065 34.991 12.8195 34.982C12.3325 34.9729 11.9087 34.9639 11.5434 34.9504C11.1782 34.9369 10.7633 34.9233 10.2989 34.9053C7.0974 34.743 4.6354 33.8051 2.91742 32.0961C1.19492 30.3826 0.252512 27.9297 0.0901829 24.7282C0.0676372 24.2637 0.0541098 23.8444 0.0450915 23.4656C0.0360732 23.0913 0.0225457 22.6585 0.0135274 22.176C0.00450915 21.689 0 21.0893 0 20.3678V14.6412C0 13.9107 0.00450915 13.3065 0.0135274 12.8195C0.0225457 12.3325 0.031564 11.9087 0.0450915 11.5434C0.0541098 11.1782 0.0721464 10.7633 0.0901829 10.2989C0.252512 7.0974 1.19492 4.6354 2.91742 2.91742C4.63991 1.19492 7.0974 0.252512 10.2989 0.0901829C10.7633 0.0721464 11.1782 0.0541098 11.5434 0.0450915C11.9087 0.0360732 12.3325 0.0270549 12.8195 0.0135274C13.3065 0 13.9062 0 14.6277 0H17.5ZM17.5 3.16091H14.6728C13.9648 3.16091 13.3696 3.16542 12.8962 3.17444C12.4182 3.18346 12.0033 3.19699 11.6516 3.206C11.2954 3.21502 10.8851 3.23306 10.4206 3.2511C8.03079 3.35481 6.26321 3.98158 5.11788 5.13592C3.97256 6.29026 3.3503 8.05334 3.2511 10.4206C3.22855 10.8851 3.21502 11.2954 3.206 11.6516C3.19699 12.0079 3.18346 12.4227 3.17444 12.8962C3.16542 13.3741 3.16091 13.9648 3.16091 14.6728V20.3227C3.16091 21.0307 3.16542 21.6259 3.17444 22.0993C3.18346 22.5773 3.19248 22.9921 3.206 23.3439C3.21502 23.7001 3.23306 24.1104 3.2511 24.5749C3.3503 26.9241 3.97707 28.6827 5.11788 29.846C6.26321 31.0094 8.03079 31.6452 10.4206 31.7444C10.8851 31.7624 11.2954 31.7805 11.6516 31.7895C12.0079 31.7985 12.4227 31.8075 12.8962 31.8211C13.3741 31.8301 13.9648 31.8346 14.6728 31.8346H20.3227C21.0307 31.8346 21.6259 31.8301 22.0993 31.8211C22.5728 31.812 22.9921 31.803 23.3439 31.7895C23.7001 31.7805 24.1059 31.7624 24.5749 31.7444C26.9647 31.6452 28.7323 31.0139 29.8776 29.8596C31.0229 28.7052 31.6452 26.9422 31.7444 24.5749C31.7624 24.1104 31.7805 23.7001 31.7895 23.3439C31.7985 22.9876 31.8075 22.5728 31.8211 22.0993C31.8301 21.6259 31.8346 21.0307 31.8346 20.3227V14.6728C31.8346 13.9648 31.8301 13.3696 31.8211 12.8962C31.812 12.4227 31.7985 12.0033 31.7895 11.6516C31.7805 11.2954 31.7624 10.8851 31.7444 10.4206C31.6407 8.04883 31.0184 6.29026 29.8776 5.13592C28.7323 3.98158 26.9647 3.35481 24.5749 3.2511C24.1104 3.23306 23.7001 3.21502 23.3439 3.206C22.9876 3.19699 22.5728 3.18797 22.0993 3.17444C21.6214 3.16542 21.0307 3.16091 20.3227 3.16091H17.4955H17.5ZM17.5 8.50876C18.7355 8.50876 19.8989 8.74775 20.9946 9.22121C22.0903 9.69918 23.0417 10.3395 23.8489 11.1511C24.6605 11.9628 25.3008 12.9142 25.7788 14.0054C26.2568 15.1011 26.4912 16.2645 26.4912 17.5C26.4912 18.7355 26.2523 19.8989 25.7788 20.9946C25.3008 22.0903 24.6605 23.0417 23.8489 23.8489C23.0372 24.6605 22.0858 25.3008 20.9946 25.7788C19.8989 26.2568 18.7355 26.4912 17.5 26.4912C16.2645 26.4912 15.1011 26.2523 14.0054 25.7788C12.9097 25.3053 11.9583 24.6605 11.1511 23.8489C10.3395 23.0372 9.69918 22.0858 9.22121 20.9946C8.74324 19.8989 8.50876 18.7355 8.50876 17.5C8.50876 16.2645 8.74775 15.1011 9.22121 14.0054C9.69918 12.9097 10.3395 11.9583 11.1511 11.1511C11.9628 10.3395 12.9142 9.69918 14.0054 9.22121C15.1011 8.74775 16.2645 8.50876 17.5 8.50876ZM17.5 23.3348C18.3116 23.3348 19.0692 23.1815 19.7771 22.8794C20.4851 22.5773 21.1028 22.1625 21.6304 21.6349C22.1579 21.1073 22.5728 20.4896 22.8749 19.7816C23.177 19.0737 23.3303 18.3116 23.3303 17.5045C23.3303 16.6974 23.177 15.9353 22.8749 15.2274C22.5728 14.5195 22.1534 13.9017 21.6304 13.3741C21.1028 12.8466 20.4851 12.4317 19.7771 12.1296C19.0692 11.8275 18.3071 11.6742 17.5 11.6742C16.6929 11.6742 15.9308 11.8275 15.2229 12.1296C14.5149 12.4317 13.8972 12.8466 13.3696 13.3741C12.8421 13.9017 12.4272 14.5195 12.1251 15.2274C11.823 15.9353 11.6697 16.6974 11.6697 17.5045C11.6697 18.3116 11.823 19.0737 12.1251 19.7816C12.4272 20.4896 12.8421 21.1073 13.3696 21.6349C13.8972 22.1625 14.5149 22.5773 15.2229 22.8794C15.9308 23.1815 16.6929 23.3348 17.5 23.3348ZM26.8294 6.04677C27.4156 6.04677 27.9161 6.25419 28.3355 6.66903C28.7503 7.08387 28.9577 7.58438 28.9577 8.17508C28.9577 8.76578 28.7503 9.25728 28.3355 9.6631C27.9206 10.0689 27.4201 10.2718 26.8294 10.2718C26.2387 10.2718 25.7472 10.0689 25.3414 9.6631C24.9356 9.25728 24.7327 8.76127 24.7327 8.17508C24.7327 7.58889 24.9356 7.08838 25.3414 6.66903C25.7472 6.25419 26.2432 6.04677 26.8294 6.04677Z" fill="#5A78FF"/>
</g>
<defs>
<clipPath id="clip0_2_9">
<rect width="35" height="35" fill="white"/>
</clipPath>
</defs>
</svg>
