<svg width="212" height="38" viewBox="0 0 212 38" fill="none" xmlns="http://www.w3.org/2000/svg">
<g clip-path="url(#clip0_1_9)">
<path d="M169.471 38C168.43 38 167.389 37.6003 166.593 36.8009L151.72 21.8752C150.959 21.1121 150.525 20.0765 150.525 18.9864V4.07889C150.525 1.82596 152.344 0 154.589 0C156.834 0 158.654 1.82596 158.654 4.07889V17.3148L169.526 28.2252L180.262 17.9508V4.07889C180.262 1.82596 182.082 0 184.327 0C186.572 0 188.391 1.82596 188.391 4.07889V19.695C188.391 20.8123 187.938 21.8752 187.133 22.6474L172.26 36.8735C171.472 37.6275 170.467 38 169.453 38" fill="white"/>
<path d="M101.261 23.0834H76.6473C74.4023 23.0834 72.5828 21.2575 72.5828 19.0045C72.5828 16.7516 74.4023 14.9257 76.6473 14.9257H101.261C103.506 14.9257 105.326 16.7516 105.326 19.0045C105.326 21.2575 103.506 23.0834 101.261 23.0834Z" fill="white"/>
<path d="M207.935 38C205.69 38 203.871 36.174 203.871 33.9211V4.07889C203.871 1.82596 205.69 0 207.935 0C210.18 0 212 1.82596 212 4.07889V33.9211C212 36.174 210.18 38 207.935 38Z" fill="white"/>
<path d="M61.7832 8.15778C55.8266 8.15778 50.9745 13.027 50.9745 19.0045C50.9745 24.9821 55.8176 29.8513 61.7832 29.8513C67.7488 29.8513 72.5918 24.9912 72.5918 19.0045C72.5918 13.0179 67.7488 8.15778 61.7832 8.15778ZM61.7832 38C51.3457 38 42.8454 29.4788 42.8454 18.9955C42.8454 8.51207 51.3457 0 61.7832 0C72.2207 0 80.721 8.52116 80.721 19.0045C80.721 29.4879 72.2297 38.0091 61.7832 38.0091" fill="white"/>
<path d="M116.134 8.15778C110.178 8.15778 105.326 13.027 105.326 19.0045C105.326 24.9821 110.169 29.8513 116.134 29.8513C122.1 29.8513 126.943 24.9912 126.943 19.0045C126.943 13.0179 122.1 8.15778 116.134 8.15778ZM116.134 38C105.697 38 97.1965 29.4788 97.1965 18.9955C97.1965 8.51207 105.697 0 116.134 0C126.572 0 135.072 8.52116 135.072 19.0045C135.072 29.4879 126.581 38.0091 116.134 38.0091" fill="white"/>
<path d="M26.3699 38H4.06456C1.81955 38 0 36.174 0 33.9211V4.07889C0 1.82596 1.81955 0 4.06456 0C6.30958 0 8.12913 1.82596 8.12913 4.07889V29.8422H26.3699C28.6149 29.8422 30.4344 31.6682 30.4344 33.9211C30.4344 36.174 28.6149 38 26.3699 38Z" fill="white"/>
</g>
<defs>
<clipPath id="clip0_1_9">
<rect width="212" height="38" fill="white"/>
</clipPath>
</defs>
</svg>
