<svg width="20" height="21" viewBox="0 0 20 21" fill="none" xmlns="http://www.w3.org/2000/svg">
<g clip-path="url(#clip0_2_28)">
<path d="M0 20.1055L1.41538 14.9407C0.971429 14.1846 0.637363 13.3846 0.413187 12.5407C0.184615 11.6967 0.0747253 10.8396 0.0747253 9.96484C0.0747253 8.59341 0.338462 7.3011 0.87033 6.09231C1.3978 4.88352 2.11429 3.82418 3.01538 2.92308C3.91648 2.02198 4.97143 1.30989 6.17582 0.786813C7.38022 0.263736 8.66813 0 10.0396 0C11.411 0 12.6505 0.250549 13.8637 0.751648C15.0725 1.25275 16.1495 1.97363 17.0945 2.91429C18.0352 3.85495 18.7604 4.93187 19.2571 6.14505C19.7582 7.35385 20.0088 8.62857 20.0088 9.96923C20.0088 11.3099 19.7451 12.633 19.222 13.8418C18.6989 15.0505 17.9868 16.1099 17.0857 17.011C16.1846 17.9121 15.1297 18.6242 13.9165 19.1473C12.7077 19.6703 11.4154 19.9341 10.044 19.9341C9.2044 19.9341 8.38681 19.833 7.58242 19.6308C6.77802 19.4286 6.01319 19.1297 5.27912 18.7341L0.00879121 20.1143L0 20.1055ZM5.51648 16.9099C6.22418 17.3275 6.93626 17.6571 7.64396 17.8945C8.35165 18.1319 9.15165 18.2505 10.0352 18.2505C11.1736 18.2505 12.2505 18.0308 13.2571 17.5956C14.2637 17.1604 15.1429 16.567 15.8945 15.8154C16.6462 15.0637 17.2396 14.1846 17.6747 13.178C18.1099 12.1714 18.3297 11.0989 18.3297 9.95604C18.3297 8.81319 18.1143 7.74066 17.6835 6.73407C17.2527 5.72747 16.6637 4.84835 15.9121 4.0967C15.1604 3.34505 14.2813 2.75165 13.2747 2.31648C12.2681 1.88132 11.1956 1.66154 10.0527 1.66154C8.90989 1.66154 7.83736 1.88132 6.83077 2.31648C5.82418 2.75165 4.94506 3.34505 4.19341 4.0967C3.44176 4.84835 2.84835 5.72747 2.41319 6.73407C1.97802 7.74066 1.75824 8.81319 1.75824 9.95604C1.75824 10.8967 1.88571 11.7363 2.14066 12.4703C2.3956 13.2044 2.75604 13.9341 3.22198 14.6681L2.38242 17.7231L5.50769 16.9011L5.51648 16.9099ZM15.0637 12.3385C15.0286 12.2813 14.9714 12.233 14.8967 12.1978C14.822 12.1626 14.7209 12.1099 14.5934 12.0396C14.5231 12.0044 14.4088 11.9473 14.2462 11.8725C14.0835 11.7978 13.9077 11.7143 13.7231 11.6264C13.5385 11.5385 13.367 11.4593 13.2088 11.3802C13.0505 11.3055 12.9451 11.2571 12.8879 11.2308C12.7736 11.1824 12.6725 11.1604 12.5934 11.1604C12.5143 11.1604 12.4264 11.2264 12.3297 11.3538C12.2945 11.411 12.2374 11.4901 12.1626 11.5912C12.0879 11.6879 12.0088 11.7846 11.9253 11.8813C11.8418 11.9736 11.767 12.0659 11.6967 12.1538C11.6264 12.2418 11.5736 12.3033 11.5385 12.3385C11.411 12.5011 11.2308 12.5231 10.9978 12.4088C10.8703 12.3385 10.6242 12.2198 10.2637 12.0527C9.9033 11.8857 9.47692 11.5912 8.98901 11.1736C8.61539 10.8352 8.31209 10.4967 8.07473 10.1538C7.83736 9.81099 7.68352 9.57363 7.61319 9.44615C7.54286 9.31868 7.52967 9.21758 7.56923 9.14286C7.60879 9.06813 7.65714 9.0022 7.71868 8.94066C7.77582 8.88352 7.84176 8.81319 7.91209 8.72967C7.98242 8.65055 8.04396 8.57143 8.10549 8.5011C8.16264 8.43077 8.20659 8.36923 8.23736 8.30769C8.26813 8.25055 8.3033 8.17582 8.35165 8.07912C8.4 8 8.41319 7.92088 8.39561 7.84176C8.37802 7.76703 8.35604 7.7011 8.33407 7.63956C8.31209 7.6044 8.26813 7.51648 8.21099 7.36703C8.15385 7.22198 8.08352 7.05494 8 6.86154C7.91648 6.66813 7.83736 6.47473 7.75385 6.27692C7.67033 6.07912 7.60879 5.91648 7.56044 5.78901C7.45495 5.54286 7.35385 5.41538 7.25714 5.3978C7.15604 5.38022 7.07253 5.37143 7.0022 5.37143C6.91868 5.35824 6.84396 5.35385 6.76484 5.35385H6.50989C6.42637 5.35385 6.32527 5.37582 6.20659 5.41538C6.08352 5.45495 5.96484 5.53846 5.85055 5.67033C5.79341 5.72747 5.71429 5.81099 5.61319 5.92527C5.51209 6.03516 5.41978 6.17582 5.32308 6.34286C5.23077 6.50989 5.14725 6.71209 5.07692 6.94506C5.00659 7.17802 4.97143 7.44615 4.97143 7.74945C4.97143 8.05275 5.01978 8.34725 5.11209 8.63736C5.2044 8.92747 5.31429 9.19121 5.43297 9.43297C5.55604 9.67033 5.67033 9.86813 5.78022 10.0264C5.89011 10.1846 5.96484 10.2857 6 10.3297C6.03516 10.3648 6.15824 10.5319 6.36483 10.8264C6.57143 11.1209 6.86154 11.4681 7.23077 11.8549C7.6 12.2418 8.03516 12.6462 8.54066 13.0593C9.04615 13.4725 9.61319 13.811 10.2418 14.0791C10.5451 14.2066 10.8132 14.3121 11.0462 14.3912C11.2791 14.4747 11.4901 14.5407 11.6747 14.6022C11.978 14.6945 12.2593 14.7429 12.5231 14.7429C12.7868 14.7429 13.0198 14.7297 13.2308 14.7077C13.3451 14.6945 13.4945 14.6549 13.6659 14.5758C13.8418 14.5011 14.0132 14.4088 14.1802 14.3033C14.3473 14.1978 14.5011 14.0747 14.633 13.9385C14.7648 13.7978 14.8615 13.6615 14.9187 13.5209C15.0242 13.2308 15.0813 12.9758 15.0945 12.7516C15.1077 12.5319 15.0945 12.3912 15.0593 12.3341L15.0637 12.3385Z" fill="#5A78FF"/>
</g>
<defs>
<clipPath id="clip0_2_28">
<rect width="20" height="20.1055" fill="white"/>
</clipPath>
</defs>
</svg>
