<svg width="41" height="31" viewBox="0 0 41 31" fill="none" xmlns="http://www.w3.org/2000/svg">
<g clip-path="url(#clip0_2_4)">
<path d="M33.5241 0.321202C35.185 0.441653 36.5073 0.79899 37.4911 1.39723C38.4748 1.99547 39.2236 2.89082 39.7334 4.0873C40.2432 5.28377 40.5818 6.82153 40.7491 8.69654C40.9164 10.5756 41 12.84 41 15.494C41 18.1479 40.9164 20.4164 40.7491 22.2914C40.5818 24.1704 40.2432 25.7042 39.7334 26.9007C39.2236 28.0971 38.4748 28.9925 37.4911 29.5907C36.5073 30.189 35.185 30.5463 33.5241 30.6668C32.4806 30.739 31.2578 30.7993 29.8598 30.8474C28.4578 30.8956 26.9642 30.9317 25.3751 30.9558C23.7859 30.9799 22.1529 30.992 20.4801 30.992C18.8073 30.992 17.1743 30.9799 15.5851 30.9558C13.9959 30.9317 12.4983 30.8956 11.1003 30.8474C9.69837 30.7993 8.49155 30.739 7.47193 30.6668C5.81105 30.5463 4.48873 30.189 3.50495 29.5907C2.52118 28.9925 1.76841 28.0971 1.24665 26.9007C0.724888 25.7042 0.386342 24.1664 0.231008 22.2914C0.0756751 20.4124 0 18.1479 0 15.494C0 12.84 0.0756751 10.5716 0.231008 8.69654C0.386342 6.81751 0.724888 5.28377 1.24665 4.0873C1.76841 2.89082 2.52118 1.99547 3.50495 1.39723C4.48873 0.79899 5.81105 0.441653 7.47193 0.321202C8.49155 0.248932 9.70235 0.188706 11.1003 0.140526C12.4983 0.0923456 13.9959 0.0562104 15.5851 0.0321203C17.1743 0.0080301 18.8073 -0.00401497 20.4801 -0.00401497C22.1529 -0.00401497 23.7819 0.0080301 25.3751 0.0321203C26.9642 0.0562104 28.4578 0.0923456 29.8598 0.140526C31.2578 0.188706 32.4806 0.248932 33.5241 0.321202ZM29.0393 15.498L15.374 8.60821V22.3838L29.0393 15.494V15.498Z" fill="white"/>
</g>
<defs>
<clipPath id="clip0_2_4">
<rect width="41" height="31" fill="white"/>
</clipPath>
</defs>
</svg>
